<svg width="74" height="56" viewBox="0 0 37 28" fill="none" xmlns="http://www.w3.org/2000/svg">
  <g clip-path="url(#clip0_660_337)">
    <path d="M7.33529 13.0314C7.33529 6.79564 12.185 1.74135 18.1678 1.74135C24.1507 1.74135 29.0004 6.79564 29.0004 13.0314C29.0004 15.0314 28.5013 16.9087 27.6267 18.5377C29.1735 16.5928 30.0954 14.1522 30.0954 11.5014C30.0942 5.14873 24.8061 0 18.2825 0C11.7589 0 6.47192 5.14873 6.47192 11.5014C6.47192 13.7262 7.1217 15.8025 8.24475 17.563C7.6613 16.1758 7.33642 14.6435 7.33642 13.0326L7.33529 13.0314Z" fill="#9C4DF4" filter="url(#f1)"/>
    <path d="M21.7393 18.3476C21.6505 18.2487 21.5077 18.2206 21.3874 18.2791C19.8698 19.012 18.3465 19.2402 16.8603 18.9536C15.7508 18.74 15.0763 18.3038 15.0684 18.2982C14.9515 18.2206 14.7963 18.2352 14.6963 18.333C14.5951 18.4308 14.576 18.5848 14.6502 18.7051L17.9575 23.9989C18.0115 24.0866 18.107 24.1405 18.2105 24.1405C18.3139 24.1405 18.4083 24.0866 18.4623 23.9989L21.7696 18.7051C21.8393 18.5927 21.8269 18.4466 21.7381 18.3476H21.7393ZM19.4459 21.3009C17.9665 21.6314 17.21 21.42 17.0009 21.3413L15.6946 19.2481C15.979 19.3527 16.323 19.455 16.7176 19.5336C17.6709 19.7203 19.0941 19.7877 20.7668 19.1863L19.4459 21.302V21.3009Z" fill="white"/>
    <path d="M14.5322 17.1684L16.0735 17.8519V12.8999L14.5322 12.1636V17.1684Z" fill="white"/>
    <path d="M21.719 17.1684L20.1777 17.8519V12.7582L21.719 12.0208V17.1684Z" fill="white"/>
    <path d="M18.9447 13.1304V17.9879C17.9127 18.179 17.4136 17.9879 17.4136 17.9879V13.1304L18.2297 13.3395L18.9447 13.1304Z" fill="white"/>
    <path d="M12.7898 9.91189V11.6712C13.0866 11.8061 13.2934 12.1052 13.2934 12.4525C13.2934 12.7774 13.1125 13.0596 12.8472 13.2057L13.5869 15.0955H11.2823L11.9703 13.1754C11.7331 13.0225 11.5757 12.7572 11.5757 12.4536C11.5757 12.1333 11.7511 11.8545 12.0108 11.7072V9.62522L10.7742 9.16768L18.3983 6.22009L25.6493 8.93048L18.1926 11.9118L12.7898 9.91301V9.91189Z" fill="white"/>
    <path d="M4.94981 16.8885L3.36359 21.1199C3.36359 21.1199 13.3373 18.5164 18.5006 27.141C18.5006 27.141 13.1271 19.6147 0.475586 23.3582L3.85261 16.8897H4.95093L4.94981 16.8885Z" fill="#9C4DF4"/>
    <path d="M0 25.8921C0 25.8921 8.6584 21.4988 18.4994 27.14C18.4994 27.14 9.41048 23.2615 0 25.8921Z" fill="#9C4DF4"/>
    <path d="M32.0503 16.6581L33.6365 20.8895C33.6365 20.8895 23.6629 18.2859 18.4995 26.9106C18.4995 26.9106 23.8731 19.3842 36.5245 23.1277L33.1475 16.6592H32.0492L32.0503 16.6581Z" fill="#9C4DF4"/>
    <path d="M37.0002 25.6627C37.0002 25.6627 28.3418 21.2695 18.5007 26.9106C18.5007 26.9106 27.5897 23.0322 37.0002 25.6627Z" fill="#9C4DF4"/>
  </g>
  <defs>
    <clipPath id="clip0_660_337">
      <rect width="37" height="27.1399" fill="white"/>
    </clipPath>
    <filter id="f1" x="-50%" y="-50%" width="200%" height="200%">
      <feDropShadow dx="3" dy="3" stdDeviation="4" flood-color="#9C4DF4" />
    </filter>
  </defs>
</svg>
